<?xml version="1.0" encoding="UTF-8" standalone="no"?>
<svg
   version="1.0"
   width="40pt"
   height="43pt"
   viewBox="0 0 40 43"
   preserveAspectRatio="xMidYMid"
   id="svg7"
   sodipodi:docname="footeremersalogosvgred32.svg"
   inkscape:version="1.3 (0e150ed6c4, 2023-07-21)"
   xmlns:inkscape="http://www.inkscape.org/namespaces/inkscape"
   xmlns:sodipodi="http://sodipodi.sourceforge.net/DTD/sodipodi-0.dtd"
   xmlns="http://www.w3.org/2000/svg"
   xmlns:svg="http://www.w3.org/2000/svg">
  <defs
     id="defs7" />
  <sodipodi:namedview
     id="namedview7"
     pagecolor="#ffffff"
     bordercolor="#000000"
     borderopacity="0.25"
     inkscape:showpageshadow="2"
     inkscape:pageopacity="0.0"
     inkscape:pagecheckerboard="0"
     inkscape:deskcolor="#d1d1d1"
     inkscape:document-units="pt"
     inkscape:zoom="3.52"
     inkscape:cx="183.80682"
     inkscape:cy="-28.835227"
     inkscape:window-width="1920"
     inkscape:window-height="986"
     inkscape:window-x="-11"
     inkscape:window-y="-11"
     inkscape:window-maximized="1"
     inkscape:current-layer="g7" />
  <g
     transform="matrix(0.02080533,0,0,-0.01442183,-141.82428,237.36302)"
     fill="#000000"
     stroke="none"
     id="g7">
    <path
       d="m 8386.9536,16190.306 c -7.7133,-2.076 -13.9637,-5.19 -13.9637,-7.059 0,-3.945 -10.905,-10.589 -25.0015,-15.572 -7.8463,-2.698 -18.7512,-7.474 -24.2037,-10.38 -12.1018,-6.852 -36.7044,-26.368 -51.2001,-40.486 -13.2987,-12.873 -26.5974,-21.593 -38.8323,-25.745 -11.5699,-3.737 -18.3522,-8.928 -26.8634,-20.762 -8.5112,-11.834 -21.9429,-24.292 -35.1085,-32.389 -13.2988,-8.097 -20.8791,-14.118 -20.8791,-16.402 0,-3.737 -17.5543,-19.101 -46.6785,-40.693 -41.093,-30.52 -55.5886,-42.77 -70.6161,-59.379 -7.7133,-8.72 -20.6131,-20.347 -32.5819,-29.067 -28.9912,-21.385 -31.6509,-23.876 -44.4178,-39.448 -7.9792,-9.758 -38.9652,-36.541 -87.5055,-75.366 -53.8598,-43.185 -73.941,-61.247 -82.8511,-74.535 -6.2504,-9.135 -13.6976,-13.911 -21.6768,-13.911 -5.1866,0 -11.038,-4.567 -21.278,-16.194 -21.677,-24.707 -75.9357,-71.421 -104.528,-90.314 -4.9205,-3.322 -12.1018,-10.174 -15.9585,-15.364 -8.3781,-11.004 -16.0914,-17.025 -22.0758,-17.233 -5.8514,0 -11.038,-3.322 -15.6925,-10.381 -14.6286,-21.592 -146.1529,-138.897 -167.5639,-149.486 -5.5854,-2.699 -25.6665,-19.516 -34.5766,-29.067 -7.8462,-8.512 -50.4022,-46.714 -75.9357,-68.514 -12.3678,-10.589 -28.1933,-24.499 -35.1086,-31.143 -16.8894,-15.779 -50.6681,-43.6 -91.2292,-75.366 -30.7201,-24.084 -37.6354,-30.935 -39.3642,-39.032 -0.266,-1.246 -3.7237,-3.115 -7.7133,-4.36 -9.1761,-2.492 -14.7615,-7.06 -23.9377,-19.517 -16.6234,-22.215 -42.5559,-44.638 -57.9824,-49.621 -5.7185,-1.868 -10.506,-4.983 -14.3627,-9.758 -3.1916,-3.737 -9.575,-11.004 -14.0965,-16.194 -15.5595,-17.44 -17.9533,-22.215 -20.48,-38.825 -2.6599,-18.893 -2.7928,-61.04 -0.2661,-82.217 2.1278,-17.44 6.5165,-34.88 9.9741,-39.656 2.3938,-3.322 39.8962,-37.371 65.8286,-60.002 7.9792,-6.851 18.7512,-14.741 23.9378,-17.44 11.4368,-6.021 17.1553,-11.004 36.0394,-31.766 19.9481,-21.8 34.4438,-34.672 43.3539,-38.202 10.107,-3.944 16.2245,-9.342 25.7995,-21.8 13.0327,-17.232 30.8531,-35.087 47.2104,-47.337 21.544,-16.194 32.05,-26.16 40.8271,-38.825 8.9101,-12.872 17.1554,-19.724 30.986,-26.16 12.2349,-5.606 34.7097,-22.838 48.0084,-36.748 15.8255,-16.818 42.0239,-40.694 57.0515,-52.528 19.4162,-15.156 31.518,-26.576 36.4385,-34.465 2.7928,-4.36 7.3142,-8.305 13.4317,-11.212 13.0328,-6.643 16.4904,-9.55 23.2728,-20.762 4.5215,-7.474 9.841,-12.872 21.9428,-21.8 39.4972,-29.066 62.1051,-47.752 74.4729,-61.247 19.1501,-20.762 28.0603,-28.86 34.0447,-30.936 5.7184,-2.076 10.506,-7.474 10.506,-11.834 0,-3.945 6.9153,-10.796 15.4264,-15.364 9.3092,-4.983 16.4905,-11.419 27.5284,-24.707 10.373,-12.457 14.6286,-15.986 21.9429,-17.855 4.2556,-1.038 6.5164,-3.114 9.1762,-8.72 2.9256,-5.813 10.1069,-12.249 36.9703,-32.804 20.3471,-15.571 36.9705,-29.689 42.423,-36.126 16.8893,-19.931 28.3263,-30.312 51.2001,-45.676 15.1605,-10.173 28.7252,-22.838 37.6353,-34.672 10.6391,-14.326 25.9326,-28.029 66.2277,-59.172 51.732,-40.071 69.8183,-55.434 91.7611,-78.48 23.1399,-24.292 52.397,-51.697 89.1015,-83.256 15.0275,-12.872 30.853,-27.405 35.3746,-32.181 4.3885,-4.567 10.905,-10.173 14.6285,-12.042 12.5008,-7.059 21.145,-14.325 33.7788,-28.443 7.0483,-7.89 18.0863,-18.063 24.6026,-22.839 22.7408,-16.194 33.2468,-25.122 42.9549,-36.333 5.3195,-6.229 11.9689,-12.457 14.6286,-13.911 6.9153,-3.737 57.5834,-3.737 69.8182,0.208 10.24,3.114 13.8307,6.852 19.8151,20.554 6.9154,15.779 19.6821,37.164 38.5663,64.155 21.677,31.143 34.3108,47.129 42.5559,53.773 6.5164,5.191 6.7824,6.021 8.2452,22.423 0.931,10.381 5.9845,20.347 16.8894,33.012 13.9636,16.402 13.8306,15.986 13.8306,66.23 0,51.698 0,51.698 -15.4264,59.795 -12.6338,6.851 -15.1605,9.55 -17.9533,19.101 -4.7876,16.609 -25.1346,39.24 -58.9133,65.4 -16.8894,13.08 -21.9429,18.063 -28.5923,28.444 -8.1122,12.457 -14.7615,19.101 -55.4557,55.227 -9.708,8.512 -20.081,19.101 -23.0067,23.461 -2.9258,4.152 -7.1813,8.512 -9.4421,9.55 -6.2504,2.699 -12.8998,9.966 -32.5819,35.296 -11.5699,14.948 -21.5439,25.744 -27.9272,30.727 -10.2401,7.682 -22.0759,19.516 -40.5612,40.278 -15.8255,17.648 -41.891,42.978 -66.0946,64.363 -25.9325,22.63 -38.1674,35.087 -57.3175,57.51 -25.7995,30.313 -87.1066,92.391 -115.2999,116.682 -11.3039,9.758 -22.6078,21.385 -46.5455,47.96 -4.1226,4.568 -10.639,9.343 -15.1606,11.212 -8.9101,3.529 -11.9688,7.059 -15.5594,18.063 -3.7237,11.211 -16.7565,26.575 -34.9757,41.316 -20.347,16.194 -34.5766,30.935 -47.7424,49.414 -12.6338,17.647 -21.012,25.952 -28.8583,29.274 -16.0914,6.644 -67.2915,56.057 -85.1117,82.217 -8.7771,12.665 -21.677,26.783 -48.5404,52.943 -23.1397,22.423 -36.3055,36.749 -44.0187,47.753 -7.1813,9.966 -11.5699,13.495 -20.7461,16.194 -4.2555,1.038 -9.575,3.737 -11.9688,5.606 -16.7564,13.495 -38.9652,49.829 -36.5714,59.587 0.399,1.868 3.4576,5.19 6.7824,7.474 3.3246,2.284 6.1173,5.398 6.1173,7.059 0,4.36 7.0483,11.419 27.1294,26.991 14.2297,11.003 20.214,16.817 25.0016,24.499 4.7875,7.889 7.1813,10.173 10.373,10.173 5.0535,0 15.8254,8.305 22.3419,17.44 10.24,14.118 22.2088,24.914 39.4972,35.503 14.8946,9.135 46.4124,34.673 65.1637,52.943 16.0914,15.571 27.5283,24.914 46.1465,38.202 9.1761,6.436 27.9273,24.914 39.6302,39.24 7.0484,8.72 11.3039,11.835 24.0707,18.271 16.8893,8.305 23.4058,13.495 34.4437,27.821 7.9793,10.173 24.4697,24.291 39.2312,33.219 16.4904,10.173 36.8375,27.406 51.2001,43.6 9.4421,10.588 23.2727,22.838 42.1569,37.579 24.4697,18.893 28.8583,23.046 33.1138,31.143 5.8515,11.004 11.038,15.987 30.0551,28.652 7.8463,5.19 17.4213,12.664 21.278,16.609 3.8566,3.737 18.4853,15.779 32.4489,26.783 29.9221,23.461 53.3279,44.223 76.3346,67.684 20.0811,20.762 33.3798,30.935 43.0878,33.427 8.1123,2.076 13.8308,6.021 21.145,14.948 5.9845,7.475 8.2452,6.644 10.24,-3.945 1.8618,-10.38 3.5907,-88.238 4.6546,-204.505 l 0.7979,-94.882 -5.7184,-1.038 c -3.1917,-0.623 -15.0275,-2.699 -26.3315,-4.36 -23.8047,-3.53 -41.625,-9.966 -61.3071,-21.385 -26.0655,-15.364 -44.0188,-31.558 -54.2588,-49.413 -3.1917,-5.606 -13.0327,-21.8 -21.9429,-36.126 -17.6872,-28.444 -22.7407,-41.316 -27.3953,-69.345 -4.6545,-28.651 -5.7184,-52.112 -4.9205,-116.89 0.9309,-81.594 1.9948,-89.276 17.9532,-123.118 10.639,-22.631 43.8858,-73.498 58.7804,-89.899 15.2935,-16.818 42.8219,-38.618 59.4453,-47.13 14.0966,-7.059 26.8634,-11.004 52.2639,-16.194 17.0223,-3.53 17.9533,-3.945 18.7512,-8.72 0.5319,-2.907 1.0639,-26.576 1.0639,-52.943 0.2659,-88.031 3.0587,-104.225 19.5491,-115.645 13.8307,-9.342 22.8739,-10.381 109.5814,-11.419 82.7181,-1.038 123.6782,0.831 133.7852,6.021 3.8566,2.077 5.1865,4.153 5.9844,8.928 0.6649,3.53 3.5907,9.55 6.5163,13.703 3.7237,4.983 5.8515,9.966 6.7824,15.571 4.2556,28.444 4.6546,187.066 1.1968,600.851 -0.7979,86.162 -1.8617,227.344 -2.6597,313.506 -0.6649,86.162 -1.7288,206.789 -2.1278,267.829 l -0.9309,111.077 -13.0327,26.16 c -17.6873,35.71 -33.7787,63.324 -50.4021,86.369 -29.1243,40.902 -38.3003,55.85 -39.8961,65.401 -2.5269,14.741 -9.8412,23.668 -24.6028,30.104 -6.6493,2.907 -40.2951,5.399 -47.8753,3.53 z"
       id="path1"
       style="stroke:#1a1a1a;stroke-width:0.166165;fill:#ff2a2a" />
  </g>
</svg>
